<svg xmlns="http://www.w3.org/2000/svg" viewBox="0 0 540 480" role="img" aria-labelledby="title desc">
  <title id="title">Familia disfrutando con sus mascotas</title>
  <desc id="desc">Ilustración cálida de una persona acariciando a un perro acompañado de un gato</desc>
  <defs>
    <linearGradient id="bg" x1="0%" y1="0%" x2="100%" y2="100%">
      <stop offset="0%" stop-color="#ffe2d6" />
      <stop offset="100%" stop-color="#ffd0c2" />
    </linearGradient>
    <linearGradient id="shadow" x1="0%" y1="0%" x2="100%" y2="0%">
      <stop offset="0%" stop-color="#f8b8a1" stop-opacity="0.6" />
      <stop offset="100%" stop-color="#f28a62" stop-opacity="0.05" />
    </linearGradient>
  </defs>
  <rect width="540" height="480" fill="url(#bg)" rx="72" />
  <ellipse cx="270" cy="360" rx="200" ry="90" fill="url(#shadow)" />
  <path d="M230 144c-34 5-62 24-78 54s-18 67-6 100 39 57 71 62 68-7 91-31 34-60 27-93-33-62-65-83c-11-7-25-11-40-9z" fill="#fff3ec" />
  <path d="M178 268c-21 7-36 25-40 47-4 20 3 43 18 57s37 19 59 14c17-4 31-15 41-30l-10-14c-9-12-14-27-14-42l-2-34-52 2z" fill="#f8b8a1" />
  <path d="M212 180c-16 6-28 21-30 38-2 15 4 31 16 41s29 12 44 7c12-4 21-13 27-24 6-12 7-26 2-38s-15-22-27-27-26-5-38 3z" fill="#f59672" />
  <path d="M293 272c-17 4-30 16-35 32s-1 34 10 47 28 19 45 16c13-2 24-9 32-19 9-11 12-26 9-40-3-15-12-27-25-35s-27-8-41-1z" fill="#fff3ec" />
  <path d="M330 220c-10 1-18 6-24 13-7 8-10 20-7 30 3 11 11 20 22 24 9 4 20 3 29-2 9-4 15-13 18-22 2-11 0-22-7-31-6-7-16-13-26-12z" fill="#f8b8a1" />
  <path d="M274 150c-8-1-16 1-23 5-8 5-14 13-16 22-2 8 0 17 5 24 6 7 14 11 23 12 8 0 17-3 23-8 7-5 11-13 13-21 1-8-1-16-6-23-5-6-12-10-19-11z" fill="#fdd9cc" />
  <path d="M250 152c-6 1-11 4-15 9-5 6-7 13-6 20 1 7 5 14 11 18 5 3 11 4 17 3 5-1 10-4 14-8 5-5 7-12 7-19s-4-14-9-18c-6-5-13-7-19-5z" fill="#fbb79d" />
  <path d="M364 148c-14 2-26 9-34 20-9 12-12 27-10 42 2 15 10 28 22 37s27 13 42 11c12-2 23-8 31-17s12-21 11-33c-1-14-8-26-19-35s-24-13-37-13c-2 0-4 0-6 1z" fill="#fff3ec" />
  <circle cx="362" cy="186" r="44" fill="#f59672" />
  <path d="M362 150c-11 0-21 5-28 13-7 9-10 21-8 33 2 11 9 21 18 27 9 5 20 7 30 4 11-3 19-10 25-19 5-9 7-20 4-31-3-11-10-20-20-25-6-3-13-5-20-4z" fill="#fbb79d" />
  <path d="M256 352c-18 4-33 16-40 33-6 16-4 35 6 50 10 14 27 22 45 21 13-1 25-6 35-14 12-10 19-24 20-39s-5-31-16-42-27-16-42-13z" fill="#ffeae0" />
  <path d="M136 300c-17 2-33 9-45 21s-19 27-20 44c0 15 5 31 15 43 11 14 28 23 46 24 16 1 31-4 43-14 15-12 24-30 25-49 0-17-6-35-19-48-12-11-28-18-45-21z" fill="#fff3ec" />
  <path d="M126 328c-10 1-20 6-27 13-8 8-12 19-11 30 1 10 5 20 13 27 8 8 19 12 30 11 9-1 18-5 25-11 9-8 14-19 15-31 0-10-4-21-11-28-7-7-18-11-28-11-2 0-4 0-6 0z" fill="#f59672" />
  <path d="M134 228c-8 0-15 3-22 7-8 5-14 12-17 21s-3 18 0 27c4 9 10 16 19 20 7 4 15 5 23 4 9-1 18-5 24-11 8-7 13-18 13-29s-5-22-13-29c-6-5-13-9-21-10-2 0-4 0-6 0z" fill="#fff3ec" />
  <path d="M370 344c-10 1-19 5-27 11-9 7-15 18-17 29-2 11 1 23 8 32 7 9 17 16 28 18 10 2 21 0 30-5 10-6 17-15 20-26 4-12 2-25-5-36-6-10-16-17-28-20-3-1-6-1-9-1z" fill="#fbb79d" />
  <circle cx="192" cy="214" r="18" fill="#fff" />
  <circle cx="192" cy="214" r="8" fill="#412e2b" />
  <circle cx="246" cy="214" r="18" fill="#fff" />
  <circle cx="246" cy="214" r="8" fill="#412e2b" />
  <path d="M202 248c10 11 25 17 40 16 13 0 26-6 34-16" stroke="#412e2b" stroke-width="8" stroke-linecap="round" fill="none" />
  <path d="M326 214c6 7 15 11 24 11 9 1 19-3 26-9" stroke="#412e2b" stroke-width="7" stroke-linecap="round" fill="none" />
  <circle cx="134" cy="208" r="12" fill="#fff" opacity="0.7" />
  <circle cx="320" cy="126" r="10" fill="#fff" opacity="0.5" />
  <circle cx="402" cy="288" r="14" fill="#fff" opacity="0.6" />
  <circle cx="160" cy="344" r="10" fill="#fff" opacity="0.4" />
</svg>
