<svg xmlns="http://www.w3.org/2000/svg" viewBox="0 0 960 560" role="img" aria-labelledby="title desc">
  <title id="title">Todo para consentir a quienes m치s amas</title>
  <desc id="desc">
    Ilustraci칩n c치lida en tonos durazno con mascotas y mensaje para resaltar los servicios de Rugalitos.
  </desc>
  <defs>
    <linearGradient id="bg" x1="0%" y1="0%" x2="100%" y2="100%">
      <stop offset="0%" stop-color="#fee8e2" />
      <stop offset="100%" stop-color="#fbd1c8" />
    </linearGradient>
    <linearGradient id="accent" x1="0%" y1="0%" x2="0%" y2="100%">
      <stop offset="0%" stop-color="#ff9a76" />
      <stop offset="100%" stop-color="#ff7a59" />
    </linearGradient>
    <linearGradient id="accent-soft" x1="0%" y1="0%" x2="0%" y2="100%">
      <stop offset="0%" stop-color="#fff5f1" />
      <stop offset="100%" stop-color="#ffe0d7" />
    </linearGradient>
    <clipPath id="rounded">
      <rect x="0" y="0" width="960" height="560" rx="56" ry="56" />
    </clipPath>
    <style>
      @import url('https://fonts.googleapis.com/css2?family=Poppins:wght@600;700&display=swap');
      .title { font-family: 'Poppins', 'Segoe UI', sans-serif; font-weight: 700; fill: #3f2a28; }
      .subtitle { font-family: 'Poppins', 'Segoe UI', sans-serif; font-weight: 500; fill: #6a4f4b; }
    </style>
  </defs>
  <rect width="960" height="560" fill="#fee8e2" rx="56" ry="56" />
  <g clip-path="url(#rounded)">
    <rect width="960" height="560" fill="url(#bg)" />
    <g opacity="0.2">
      <circle cx="120" cy="160" r="110" fill="#ffffff" />
      <circle cx="820" cy="120" r="160" fill="#ffffff" />
      <circle cx="880" cy="520" r="180" fill="#fff1eb" />
      <circle cx="140" cy="480" r="150" fill="#fff1eb" />
    </g>
    <g transform="translate(70,120)">
      <text class="title" font-size="60" letter-spacing="0.02em">
        <tspan x="0" dy="0">Todo para consentir</tspan>
        <tspan x="0" dy="66">a quienes m치s amas</tspan>
      </text>
      <text class="subtitle" font-size="26" y="170" letter-spacing="0.01em">
        Descubre productos seleccionados para la vida feliz de tu mascota.
      </text>
      <g transform="translate(575,30)">
        <circle cx="120" cy="140" r="120" fill="url(#accent-soft)" />
        <circle cx="70" cy="110" r="52" fill="#ffd4c6" />
        <circle cx="170" cy="210" r="48" fill="#ffd4c6" />
        <path d="M123 58c34 0 62 27 62 60 0 33-28 60-62 60s-62-27-62-60c0-33 28-60 62-60z" fill="url(#accent)" />
        <ellipse cx="103" cy="112" rx="12" ry="16" fill="#fff" />
        <ellipse cx="143" cy="112" rx="12" ry="16" fill="#fff" />
        <circle cx="103" cy="112" r="6" fill="#3f2a28" />
        <circle cx="143" cy="112" r="6" fill="#3f2a28" />
        <path d="M110 152c10 12 26 12 36 0" stroke="#3f2a28" stroke-width="6" stroke-linecap="round" fill="none" />
        <path d="M58 210c15-18 46-22 65-8 24 18 54 18 78 0 19-14 50-10 65 8 16 20 20 46 14 70H44c-6-24-2-50 14-70z" fill="#fff1eb" />
        <circle cx="46" cy="208" r="32" fill="#ffd4c6" />
        <circle cx="208" cy="208" r="32" fill="#ffd4c6" />
      </g>
    </g>
  </g>
</svg>
